<svg width="17" height="16" viewBox="0 0 17 16" fill="none" xmlns="http://www.w3.org/2000/svg">
<path d="M6.84388 6.69166C5.98534 6.69166 5.25038 6.38597 4.639 5.77458C4.02762 5.1632 3.72193 4.42824 3.72193 3.56971C3.72193 2.71117 4.02762 1.97621 4.639 1.36483C5.25038 0.753445 5.98534 0.447754 6.84388 0.447754C7.70241 0.447754 8.43737 0.753445 9.04876 1.36483C9.66014 1.97621 9.96583 2.71117 9.96583 3.56971C9.96583 4.42824 9.66014 5.1632 9.04876 5.77458C8.43737 6.38597 7.70241 6.69166 6.84388 6.69166ZM15.5073 15.6673L13.0097 13.1697C12.7366 13.3258 12.4439 13.4559 12.1317 13.5599C11.8195 13.664 11.4878 13.716 11.1366 13.716C10.161 13.716 9.33181 13.3745 8.64915 12.6913C7.96648 12.0081 7.62489 11.1789 7.62437 10.2039C7.62437 9.22824 7.96596 8.39884 8.64915 7.71566C9.33233 7.03247 10.1615 6.69114 11.1366 6.69166C12.1122 6.69166 12.9416 7.03325 13.6248 7.71644C14.3079 8.39962 14.6493 9.22876 14.6488 10.2039C14.6488 10.5551 14.5967 10.8868 14.4927 11.199C14.3886 11.5112 14.2585 11.8039 14.1024 12.077L16.6 14.5746L15.5073 15.6673ZM11.1366 12.1551C11.6829 12.1551 12.1447 11.9665 12.5219 11.5892C12.8992 11.212 13.0878 10.7502 13.0878 10.2039C13.0878 9.65751 12.8992 9.19572 12.5219 8.81849C12.1447 8.44125 11.6829 8.25263 11.1366 8.25263C10.5902 8.25263 10.1284 8.44125 9.75119 8.81849C9.37396 9.19572 9.18534 9.65751 9.18534 10.2039C9.18534 10.7502 9.37396 11.212 9.75119 11.5892C10.1284 11.9665 10.5902 12.1551 11.1366 12.1551ZM6.86339 7.47214C6.31705 8.27865 6.04388 9.18922 6.04388 10.2039C6.04388 11.2185 6.31705 12.1291 6.86339 12.9356H0.599976V10.7697C0.599976 10.3274 0.710545 9.91767 0.931683 9.54044C1.15282 9.1632 1.45851 8.87702 1.84876 8.6819C2.51217 8.34369 3.26014 8.05751 4.09266 7.82336C4.92518 7.58922 5.84876 7.47214 6.86339 7.47214Z" fill="#231D19"/>
</svg>
