<svg width="23" height="26" viewBox="0 0 23 26" fill="none" xmlns="http://www.w3.org/2000/svg">
<path d="M2.14542 23.4034L0.143738 0.291992H22.1461L20.1418 23.3997L11.1316 25.9703L2.14542 23.4034Z" fill="#1572B6"/>
<path d="M11.145 24.006L18.4262 21.9288L20.1391 2.18213H11.145V24.006Z" fill="#33A9DC"/>
<path d="M11.145 10.5551H14.79L15.0414 7.65257H11.145V4.81787H18.0519L17.986 5.57813L17.3095 13.3898H11.145V10.5551Z" fill="white"/>
<path d="M11.1619 17.917L11.1495 17.9206L8.08188 17.0677L7.88581 14.8071H5.12036L5.50626 19.2577L11.1486 20.87L11.1619 20.8663V17.917Z" fill="#EBEBEB"/>
<path d="M14.5557 13.27L14.2241 17.0658L11.1521 17.9187V20.8681L16.7989 19.2577L16.8408 18.7789L17.3193 13.27H14.5557Z" fill="white"/>
<path d="M11.1547 4.81787V7.65257H4.5009L4.44564 7.0152L4.31998 5.57813L4.25403 4.81787H11.1547ZM11.1449 10.5551V13.3898H8.11568L8.06042 12.7525L7.93565 11.3154L7.8697 10.5551H11.1449Z" fill="#EBEBEB"/>
</svg>
