<svg width="17" height="26" viewBox="0 0 17 26" fill="none" xmlns="http://www.w3.org/2000/svg">
<path d="M4.36086 25.9706C6.65664 25.9706 8.51989 24.0533 8.51989 21.6909V17.4111H4.36086C2.06508 17.4111 0.201843 19.3284 0.201843 21.6909C0.201843 24.0533 2.06508 25.9706 4.36086 25.9706Z" fill="#0ACF83"/>
<path d="M0.201843 13.1313C0.201843 10.7689 2.06508 8.85156 4.36086 8.85156H8.51989V17.411H4.36086C2.06508 17.411 0.201843 15.4937 0.201843 13.1313Z" fill="#A259FF"/>
<path d="M0.201843 4.57171C0.201843 2.20931 2.06508 0.291992 4.36086 0.291992H8.51989V8.85143H4.36086C2.06508 8.85143 0.201843 6.93412 0.201843 4.57171Z" fill="#F24E1E"/>
<path d="M8.5199 0.291992H12.6789C14.9747 0.291992 16.8379 2.20931 16.8379 4.57171C16.8379 6.93412 14.9747 8.85143 12.6789 8.85143H8.5199V0.291992Z" fill="#FF7262"/>
<path d="M16.8379 13.1313C16.8379 15.4937 14.9747 17.411 12.6789 17.411C10.3831 17.411 8.5199 15.4937 8.5199 13.1313C8.5199 10.7689 10.3831 8.85156 12.6789 8.85156C14.9747 8.85156 16.8379 10.7689 16.8379 13.1313Z" fill="#1ABCFE"/>
</svg>
