<svg width="31" height="33" viewBox="0 0 31 33" fill="none" xmlns="http://www.w3.org/2000/svg">
<path d="M11.7398 26.8846C4.56035 29.0385 4.56035 23.2949 1.68855 22.5769M21.7911 31.1923V25.6354C21.845 24.9507 21.7525 24.2624 21.5198 23.6162C21.287 22.97 20.9194 22.3808 20.4414 21.8877C24.9501 21.3851 29.6886 19.6764 29.6886 11.8364C29.6882 9.83166 28.917 7.90378 27.5347 6.4518C28.1893 4.69787 28.143 2.75918 27.4055 1.03847C27.4055 1.03847 25.7111 0.535908 21.7911 3.1636C18.5001 2.27165 15.0309 2.27165 11.7398 3.1636C7.81984 0.535908 6.12548 1.03847 6.12548 1.03847C5.38796 2.75918 5.34168 4.69787 5.99625 6.4518C4.60361 7.91455 3.83166 9.85985 3.8424 11.8795C3.8424 19.6621 8.58086 21.3708 13.0896 21.9308C12.6172 22.4189 12.2528 23.0011 12.0203 23.6394C11.7877 24.2777 11.6922 24.9577 11.7398 25.6354V31.1923" stroke="#FF4820" stroke-width="2" stroke-linecap="round" stroke-linejoin="round"/>
</svg>
