<svg width="13" height="15" viewBox="0 0 13 15" fill="none" xmlns="http://www.w3.org/2000/svg">
<path d="M9.28056 2.10735V12.524C9.28056 13.6837 10.0722 14.3365 10.9403 14.3365C11.732 14.3365 12.6 13.7879 12.6 12.524V2.18374C12.6 1.1143 11.8083 0.447632 10.9403 0.447632C10.0722 0.447632 9.28056 1.18374 9.28056 2.10735ZM4.94028 7.39208V12.524C4.94028 13.6907 5.74584 14.3365 6.60001 14.3365C7.39167 14.3365 8.25973 13.7879 8.25973 12.524V7.46847C8.25973 6.39902 7.46806 5.73235 6.60001 5.73235C5.73195 5.73235 4.94028 6.46847 4.94028 7.39208ZM2.25973 11.024C3.1764 11.024 3.91945 11.7671 3.91945 12.6768C3.91945 13.117 3.74459 13.5391 3.43333 13.8504C3.12207 14.1617 2.69991 14.3365 2.25973 14.3365C1.81954 14.3365 1.39739 14.1617 1.08613 13.8504C0.774869 13.5391 0.600006 13.117 0.600006 12.6768C0.600006 11.7671 1.34306 11.024 2.25973 11.024Z" fill="#231D19"/>
</svg>
