<svg width="23" height="26" viewBox="0 0 23 26" fill="none" xmlns="http://www.w3.org/2000/svg">
<path d="M2.73346 23.4034L0.730896 0.291992H22.7351L20.7298 23.3997L11.7196 25.9703L2.73346 23.4034Z" fill="#E44F26"/>
<path d="M11.733 24.006L19.0143 21.9288L20.7272 2.18213H11.733V24.006Z" fill="#F1662A"/>
<path d="M11.733 10.7534H8.08791L7.83659 7.85082H11.733V5.01611H4.82605L4.892 5.77729L5.56844 13.5881H11.733V10.7534ZM11.733 18.1148L11.7205 18.1185L8.65294 17.2665L8.45688 15.0059H5.69142L6.07732 19.4556L11.7205 21.0678L11.733 21.0641V18.1148Z" fill="#EBEBEB"/>
<path d="M11.7232 10.7534V13.5881H15.1152L14.7961 17.2647L11.7232 18.1176V21.0669L17.3709 19.4556L17.4119 18.9769L18.0589 11.5146L18.1266 10.7534H11.7232ZM11.7232 5.01611V7.85082H18.377L18.4323 7.21436L18.558 5.77729L18.6239 5.01611H11.7232Z" fill="white"/>
</svg>
