<svg width="28" height="26" viewBox="0 0 28 26" fill="none" xmlns="http://www.w3.org/2000/svg">
<path d="M0.473999 0.291992H27.2106V25.9703H0.473999V0.291992Z" fill="#F5DE19"/>
<path d="M19.0194 20.3535C19.232 20.798 19.5624 21.1715 19.9723 21.4311C20.3823 21.6907 20.8552 21.8258 21.3366 21.8209C22.308 21.8209 22.9292 21.3211 22.9292 20.6287C22.9292 19.8033 22.2911 19.508 21.2216 19.0265L20.6352 18.7679C18.9419 18.026 17.8189 17.097 17.8189 15.1326C17.8189 13.3232 19.1558 11.9448 21.2528 11.9448C21.9316 11.8944 22.6099 12.0507 23.203 12.3943C23.796 12.738 24.2776 13.2537 24.5877 13.8771L22.7545 15.0831C22.6351 14.7739 22.4272 14.5095 22.1584 14.3247C21.8895 14.14 21.5725 14.0437 21.2492 14.0486C21.1082 14.0341 20.9658 14.0499 20.8311 14.0952C20.6963 14.1404 20.5722 14.214 20.4666 14.3114C20.3611 14.4087 20.2764 14.5276 20.2179 14.6604C20.1595 14.7933 20.1286 14.9372 20.1272 15.0831C20.1272 15.8066 20.563 16.1001 21.5692 16.5504L22.1556 16.809C24.1484 17.6885 25.2749 18.5845 25.2749 20.5993C25.2749 22.7719 23.6163 23.9623 21.3892 23.9623C20.5214 24.0192 19.6561 23.8164 18.8979 23.3785C18.1396 22.9406 17.5206 22.2862 17.1158 21.4944L19.0194 20.3535ZM10.7355 20.5626C11.1036 21.2349 11.4387 21.8035 12.2444 21.8035C13.0144 21.8035 13.501 21.4935 13.501 20.2875V12.0824H15.8458V20.3196C15.8458 22.8177 14.4198 23.9549 12.3442 23.9549C11.6105 23.9962 10.8818 23.808 10.254 23.4152C9.62616 23.0224 9.12853 22.4432 8.82654 21.7539L10.7355 20.5626Z" fill="black"/>
</svg>
