<svg width="31" height="30" viewBox="0 0 31 30" fill="none" xmlns="http://www.w3.org/2000/svg">
<path d="M21.3 9.7002C23.6074 9.7002 25.8203 10.6168 27.4518 12.2484C29.0834 13.8799 30 16.0928 30 18.4002V28.5502H24.2V18.4002C24.2 17.6311 23.8945 16.8934 23.3506 16.3496C22.8068 15.8057 22.0691 15.5002 21.3 15.5002C20.5309 15.5002 19.7933 15.8057 19.2494 16.3496C18.7055 16.8934 18.4 17.6311 18.4 18.4002V28.5502H12.6V18.4002C12.6 16.0928 13.5166 13.8799 15.1482 12.2484C16.7797 10.6168 18.9926 9.7002 21.3 9.7002Z" stroke="#FF4820" stroke-width="2" stroke-linecap="round" stroke-linejoin="round"/>
<path d="M6.8 11.1504H1V28.5504H6.8V11.1504Z" stroke="#FF4820" stroke-width="2" stroke-linecap="round" stroke-linejoin="round"/>
<path d="M3.9 6.8C5.50163 6.8 6.8 5.50163 6.8 3.9C6.8 2.29837 5.50163 1 3.9 1C2.29837 1 1 2.29837 1 3.9C1 5.50163 2.29837 6.8 3.9 6.8Z" stroke="#FF4820" stroke-width="2" stroke-linecap="round" stroke-linejoin="round"/>
</svg>
