<svg width="35" height="29" viewBox="0 0 35 29" fill="none" xmlns="http://www.w3.org/2000/svg">
<path d="M33.2632 1.01463C31.8703 1.99714 30.328 2.7486 28.6959 3.24008C27.8199 2.23282 26.6556 1.51891 25.3607 1.19488C24.0657 0.87086 22.7024 0.952366 21.4553 1.42838C20.2081 1.90439 19.1373 2.75194 18.3875 3.8564C17.6377 4.96086 17.2453 6.26893 17.2632 7.60372V9.05826C14.707 9.12454 12.1741 8.55763 9.89008 7.408C7.60605 6.25838 5.6418 4.56173 4.17224 2.46917C4.17224 2.46917 -1.64594 15.5601 11.445 21.3783C8.44938 23.4117 4.88084 24.4313 1.26315 24.2874C14.3541 31.5601 30.3541 24.2874 30.3541 7.56008C30.3527 7.15492 30.3138 6.75076 30.2377 6.35281C31.7222 4.8888 32.7698 3.04039 33.2632 1.01463Z" stroke="#FF4820" stroke-width="2" stroke-linecap="round" stroke-linejoin="round"/>
</svg>
